# xmcd CD database file
#
# Track frame offsets:
#	150
#	15385
#	27759
#	55493
#	74072
#	93583
#	111881
#	133408
#	152368
#	167380
#	185964
#	204287
#
# Disc length: 3015 seconds
#
# Revision: 0
# Processed by: cddbd v1.5.2PL0 Copyright (c) Steve Scherf et al.
# Submitted via: CDex 1.51
#
DISCID=a40bc50c
DTITLE=John Mayer - Continuum
DYEAR=2006
DGENRE=Blues
TTITLE0=Waiting On The World To Change
TTITLE1=I Don't Trust Myself (With Loving You)
TTITLE2=Belief
TTITLE3=Gravity
TTITLE4=The Heart of Life
TTITLE5=Vultures
TTITLE6=Stop This Train
TTITLE7=Slow Dancing in a Burning Room
TTITLE8=Bold As Love
TTITLE9=Dreaming With A Broken Heart
TTITLE10=In Repair
TTITLE11=I'm Gonna Find Another You
EXTD=YEAR: 2006
EXTT0=
EXTT1=
EXTT2=
EXTT3=
EXTT4=
EXTT5=
EXTT6=
EXTT7=
EXTT8=
EXTT9=
EXTT10=
EXTT11=
PLAYORDER=
